<svg xmlns="http://www.w3.org/2000/svg" viewBox="0 0 24 24" aria-hidden="true"
   class="theme-toggle__expand">
   <clipPath id="theme-toggle__expand__cutout">
      <path d="M0-11h19A1 1 0 0036 2v22H0Z" />
   </clipPath>
   <g fill="currentColor" clip-path="url(#theme-toggle__expand__cutout)">
      <circle cx="12" cy="12" r="6.4" />
      <path
         d="M13.7 2.7c0 1-.7 1.8-1.7 1.8s-1.8-.8-1.8-1.8S11 1 12 1s1.7.7 1.7 1.7zm-3.5 19.5c0-1 .8-1.7 1.8-1.7s1.6.6 1.6 1.6-.7 1.8-1.7 1.8-1.8-.8-1.8-1.8zm11.5-8c-1 0-1.7-.7-1.7-1.7s.7-1.8 1.7-1.8 1.8.8 1.8 1.8-.9 1.6-1.9 1.6zM2.2 10.7c1 0 1.8.8 1.8 1.8s-.8 1.7-1.8 1.7-1.7-.7-1.7-1.7.7-1.8 1.7-1.8zm4.4-5.3c0 1-.8 1.7-1.7 1.7-1 0-1.8-.7-1.8-1.7s.8-1.8 1.8-1.8 1.7.8 1.7 1.8zm12.5 16c-1 0-1.8-.8-1.8-1.8s.8-1.7 1.8-1.7 1.7.7 1.7 1.7-.8 1.8-1.7 1.8zm1.8-16c0 1-.8 1.7-1.8 1.7s-1.8-.8-1.8-1.7c0-1 .8-1.8 1.8-1.8s1.8.8 1.8 1.8zm-16 12.4c1 0 1.7.8 1.7 1.8s-.7 1.7-1.7 1.7-1.8-.8-1.8-1.7c0-1 .8-1.8 1.8-1.8z" />
   </g>
</svg>