<?xml version="1.0" encoding="UTF-8" standalone="no"?>
<!-- Created with Inkscape (http://www.inkscape.org/) -->

<svg
   width="24"
   height="24"
   viewBox="0 0 24 24"
   version="1.1"
   id="svg221"
   xmlns="http://www.w3.org/2000/svg"
   xmlns:svg="http://www.w3.org/2000/svg">
  <defs
     id="defs218" />
  <g
     id="layer1"
     transform="translate(-0.7136796,-44.467676)">
    <path
       stroke-linecap="round"
       stroke-linejoin="round"
       d="m 12.714081,63.266928 v -3.100692 m -4.01e-4,0.0014 c 0.404818,3.13e-4 0.808057,-0.05183 1.200145,-0.15256 m -1.200145,0.15256 c -0.404819,3.13e-4 -0.808056,-0.05183 -1.200145,-0.15256 m 3.000762,4.883209 c -1.189515,0.225891 -2.410919,0.225891 -3.600434,0 m 3.000362,1.906629 c -0.797916,0.08354 -1.602374,0.08354 -2.40029,0 m 3.000362,-3.538026 V 63.11331 c 0,-0.786495 0.526462,-1.458575 1.206545,-1.853023 5.310745,-3.075438 3.126452,-11.192541 -3.007162,-11.192541 -6.1336141,0 -8.3179077,8.117103 -3.0071624,11.192541 0.6800824,0.394448 1.2073454,1.066528 1.2073454,1.853023 v 0.153618 m 2.442801,-3.164503 m -1.200145,0.15256"
       id="path11287"
       style="fill:none;fill-opacity:1;fill-rule:evenodd;stroke:#000000;stroke-width:1.20014;stroke-dasharray:none;stroke-opacity:1" />
    <path
       style="fill:none;fill-opacity:1;fill-rule:evenodd;stroke:#000000;stroke-width:1;stroke-linecap:round;stroke-dasharray:none;stroke-opacity:1"
       d="m 20.71368,55.467676 h 2.590909 v 0"
       id="path12812" />
    <path
       style="fill:none;fill-opacity:1;fill-rule:evenodd;stroke:#000000;stroke-width:1;stroke-linecap:round;stroke-dasharray:none;stroke-opacity:1"
       d="m 12.698691,45.981676 v 2.185976 0"
       id="path12812-5" />
    <path
       style="fill:none;fill-opacity:1;fill-rule:evenodd;stroke:#000000;stroke-width:1;stroke-linecap:round;stroke-dasharray:none;stroke-opacity:1"
       d="m 6.7021616,50.467676 -2.988482,-2.415261 v 0"
       id="path12812-5-8-1-0-4" />
    <path
       style="fill:none;fill-opacity:1;fill-rule:evenodd;stroke:#000000;stroke-width:1;stroke-linecap:round;stroke-dasharray:none;stroke-opacity:1"
       d="m 6.7021616,61.052415 -2.988482,2.415261 v 0"
       id="path12812-5-8-1-0-4-9" />
    <path
       style="fill:none;fill-opacity:1;fill-rule:evenodd;stroke:#000000;stroke-width:1;stroke-linecap:round;stroke-dasharray:none;stroke-opacity:1"
       d="m 18.725198,61.052415 2.988482,2.415261 v 0"
       id="path12812-5-8-1-0-4-9-1" />
    <path
       style="fill:none;fill-opacity:1;fill-rule:evenodd;stroke:#000000;stroke-width:1;stroke-linecap:round;stroke-dasharray:none;stroke-opacity:1"
       d="m 21.702162,48.052415 -2.988482,2.415261 v 0"
       id="path12812-5-8-1-0-4-6" />
    <path
       style="fill:none;fill-opacity:1;fill-rule:evenodd;stroke:#000000;stroke-width:1;stroke-linecap:round;stroke-dasharray:none;stroke-opacity:1"
       d="m 4.7136796,55.467676 h -2.590909 v 0"
       id="path12812-5-2" />
    <path
       d="m 12.71368,60.467676 v -3.125 -0.875"
       style="display:none;fill:none;fill-opacity:1;fill-rule:evenodd;stroke:#000000;stroke-width:1.20014;stroke-linecap:round;stroke-linejoin:round;stroke-dasharray:none;stroke-opacity:1"
       id="path13294" />
    <path
       d="m 14.913825,58.015076 m -1.200145,0.15256"
       style="fill:none;fill-opacity:1;fill-rule:evenodd;stroke:#000000;stroke-width:1.20014;stroke-linecap:round;stroke-linejoin:round;stroke-dasharray:none;stroke-opacity:1"
       id="path13431" />
    <path
       style="display:none;fill:none;fill-opacity:1;fill-rule:evenodd;stroke:#000000;stroke-width:1.2;stroke-linecap:round;stroke-dasharray:none;stroke-opacity:1"
       d="m 14.71368,58.167676 c 0,0 -1.254644,0.3 -2,0.3 -0.745356,0 -2,-0.3 -2,-0.3"
       id="path13489" />
    <path
       style="display:none;fill:none;fill-opacity:1;fill-rule:evenodd;stroke:#000000;stroke-width:1.2;stroke-linecap:round;stroke-dasharray:none;stroke-opacity:1"
       d="m 15.21368,56.167676 c 0,0 -1.754644,0.3 -2.5,0.3 -0.745356,0 -2.5,-0.3 -2.5,-0.3"
       id="path13489-9" />
  </g>
</svg>
