<svg xmlns="http://www.w3.org/2000/svg" class="theme-toggle__lightbulb" viewBox="0 0 381.3 369.5" stroke="currentColor" fill="currentColor" strokeLinecap="round" strokeWidth="9px">
  <path strokeWidth="0" d="M271 116a112 112 0 0 0-79-33c-62 0-112 51-112 113a113 113 0 0 0 27 74c9 10 25 33 31 54a5 5 0 1 0 10-1v-2c-7-22-24-47-33-58a103 103 0 0 1-25-67c0-58 45-103 102-103a99 99 0 0 1 72 30 103 103 0 0 1 4 140c-9 11-26 36-33 59v1a5 5 0 0 0 5 6 5 5 0 0 0 5-5c7-21 23-44 31-54a111 111 0 0 0 29-74 113 113 0 0 0-34-80Z"></path>
  <path d="M146 337h91m-91 15h91m-91 14h91"></path>
  <path class="theme-toggle__lightbulb__coil" fill="none" pathLength="1" d="m207 322 1-124c3-11 13-20 24-20 15-1 27 12 26 27 0 12-11 23-25 24h-86c-14-1-25-12-25-24-1-15 11-28 26-27 11 0 21 9 24 20l1 124"></path>>
  <g class="theme-toggle__lightbulb__rays">
	<path d="M190 66V5" pathLength="1"></path>
	<path d="m66 204-61 1" pathLength="1"></path>
	<path d="M93 110 49 66" pathLength="1"></path>
	<path d="m281 110 44-44" pathLength="1"></path>
	<path d="M316 206h60" pathLength="1"></path>
  </g>
</svg>