<svg width="663.4" height="34" xmlns="http://www.w3.org/2000/svg">
<path fill="#2563eb" style="transform: scale(0.35);" d="M17.3 55.6l-1.5-3.4c-.2-.5-.1-1 .3-1.4l2.8-2.5c.8-.8.2-2.2-.9-2.1l-3.7.4a1 1 0 01-1.2-.7l-1.6-3.4c-.5-1-2-.9-2.2.2l-.8 3.7c-.1.5-.5.9-1 .9l-3.7.4c-1.1.1-1.5 1.6-.5 2.2l3.2 1.9c.4.3.7.8.6 1.3l-.7 3.7c-.2 1.1 1.1 1.9 2 1.1l2.8-2.5c.4-.3.9-.4 1.4-.2l3.3 1.8c.7.7 1.8-.4 1.4-1.4zM18.6 24.2c.3.2.5.5.4.9l-.5 2.6c-.2.8.8 1.3 1.4.8l2-1.8c.3-.2.7-.3 1-.1l2.3 1.3c.7.4 1.5-.3 1.2-1.1l-1.1-2.4a1 1 0 01.2-1l1.9-1.8c.6-.5.1-1.5-.7-1.4l-2.6.3c-.4 0-.7-.2-.8-.5l-1.1-2.4c-.3-.7-1.4-.6-1.6.2l-.6 2.6c-.1.4-.4.6-.7.7l-2.6.3c-.8.1-1 1.1-.3 1.6l2.2 1.2zM27.3 76.1l-2.5-.8a.9.9 0 01-.6-.8l-.1-2.6c0-.8-1.1-1.1-1.5-.5l-1.5 2.1c-.2.3-.6.4-.9.3l-2.5-.8c-.8-.2-1.4.7-.9 1.3l1.6 2.1c.2.3.2.7 0 1l-1.5 2.2c-.5.7.2 1.5 1 1.3l2.5-.8c.3-.1.7 0 .9.3l1.6 2.1c.5.6 1.5.3 1.5-.5v-2.6c0-.4.2-.7.6-.8l2.5-.9c.6-.3.6-1.4-.2-1.6zM51.1 19.6c1.7 0 3.1-1.4 3.1-3.1V6.7c0-1.7-1.4-3.1-3.1-3.1A3.1 3.1 0 0048 6.7v9.8c.1 1.7 1.5 3.1 3.1 3.1zM51.1 80.4a3.1 3.1 0 00-3.1 3.1v9.8c0 1.7 1.4 3.1 3.1 3.1s3.1-1.4 3.1-3.1v-9.8c0-1.7-1.4-3.1-3.1-3.1zM77 71.5a3 3 0 00-4.3 0 3 3 0 000 4.3l6.9 6.9c.6.6 1.4.9 2.2.9s1.6-.3 2.2-.9a3 3 0 000-4.3l-7-6.9zM94.4 46.9h-9.8c-1.7 0-3.1 1.4-3.1 3.1s1.4 3.1 3.1 3.1h9.8c1.7 0 3.1-1.4 3.1-3.1s-1.4-3.1-3.1-3.1zM74.8 29.4c.8 0 1.6-.3 2.2-.9l6.9-6.9a3 3 0 000-4.3 3 3 0 00-4.3 0l-6.9 6.9a3 3 0 002.1 5.2zM51.2 24.4a25.6 25.6 0 100 51.2 25.6 25.6 0 000-51.2zM31.8 49.9c0-10.7 8.7-19.4 19.4-19.4v38.9a19.4 19.4 0 01-19.4-19.5z"/>
<path style="transform: translateX(37px) translateY(5px) scale(0.3);" d="M173.7 22.2H185l.4 5.5a18.3 18.3 0 0112.1-6.3 26 26 0 013-.2q10.7 0 14.6 8.1a18.3 18.3 0 0113.3-8 24.6 24.6 0 012.9-.1q6.1 0 10 2.3a12.6 12.6 0 013 2.5q3.4 3.8 4.2 10.5a36 36 0 01.2 3.8V75h-11.9V40.6q0-3-.8-5a7 7 0 00-1.4-2.3 6.5 6.5 0 00-2.4-1.6q-1-.4-2.3-.6a17.5 17.5 0 00-2.6-.2 12.4 12.4 0 00-2.9.3 8.8 8.8 0 00-3.7 1.9 11.2 11.2 0 00-3.3 4.8 13.9 13.9 0 00-.3.9V75h-11.8V40.2a13.6 13.6 0 00-.5-3.7q-1.4-4.2-5.7-5.2a14 14 0 00-3.3-.4 13.6 13.6 0 00-4 .6 10 10 0 00-6.1 5.2V75h-11.9V22.2zM76.3 0v28Q82 21.1 91 21.1a21 21 0 017.1 1.1q9.8 3.5 10 18.2V75H96.2V41a20 20 0 00-.1-2.8q-.4-3-2-4.7a5.6 5.6 0 00-.2-.3 7.5 7.5 0 00-3-1.7q-1.1-.4-2.5-.5a16.5 16.5 0 00-1.5 0 12.5 12.5 0 00-5 .8Q79 33.1 77.2 36a15.6 15.6 0 00-.8 1.3V75H64.4V0h11.9zm386.5 27.5l.5-5.3H474v51.2a27 27 0 01-.8 7 19.4 19.4 0 01-5.6 9.4q-6.5 6-17.4 6a40 40 0 01-.1 0q-5.8 0-11.4-2.4a25.2 25.2 0 01-4-2.2q-2.4-1.7-4-3.7a15.7 15.7 0 01-.4-.4l5.6-7.2q5.5 6.5 13.5 6.5a17.6 17.6 0 003.9-.4q2.6-.6 4.6-2a10.8 10.8 0 00.8-.8q3.5-3.2 3.5-9.4v-3.5a17 17 0 01-11.4 5.6 23.6 23.6 0 01-2.3 0q-9.3 0-15.2-7.3a24.9 24.9 0 01-4.3-8.5q-1.6-5.2-1.6-12 0-12.2 5.8-19.6a18.4 18.4 0 0113.3-7.2 23.4 23.4 0 012-.1 20.8 20.8 0 016.4 1 16.5 16.5 0 017.9 5.3zm56.7 0l.5-5.3h10.7v51.2a27 27 0 01-.9 7 19.4 19.4 0 01-5.6 9.4q-6.4 6-17.3 6a40 40 0 01-.1 0q-5.8 0-11.4-2.4a25.2 25.2 0 01-4-2.2q-2.4-1.7-4-3.7a15.7 15.7 0 01-.4-.4l5.6-7.2q5.5 6.5 13.5 6.5a17.6 17.6 0 003.8-.4q2.7-.6 4.7-2a10.8 10.8 0 00.8-.8q3.4-3.2 3.4-9.4v-3.5a17 17 0 01-11.3 5.6 23.6 23.6 0 01-2.3 0q-9.3 0-15.2-7.3a24.9 24.9 0 01-4.3-8.5q-1.6-5.2-1.6-12 0-12.2 5.8-19.6a18.4 18.4 0 0113.3-7.2 23.4 23.4 0 012-.1 20.8 20.8 0 016.4 1 16.5 16.5 0 017.9 5.3zM663 38H651a7.5 7.5 0 00-.8-3.4 7.7 7.7 0 00-1.7-2.3 8.7 8.7 0 00-4-2 12.7 12.7 0 00-2.8-.2 13.8 13.8 0 00-2.7.2q-1.7.4-3 1.2a8.2 8.2 0 00-.6.4q-2.4 1.7-2.5 4.6a7.3 7.3 0 000 .2q0 2.6 2 4a6.3 6.3 0 00.3.3 9.8 9.8 0 001.4.7q2.6 1.2 7.9 2.3a69.4 69.4 0 014 1q2.1.6 3.8 1.3a27.6 27.6 0 013.1 1.4q3.7 2 5.6 4.5a11.7 11.7 0 01.4.6A11.8 11.8 0 01663 57a16 16 0 01.3 3 13.5 13.5 0 01-4.5 10.3 17.7 17.7 0 01-1.4 1.2 21.1 21.1 0 01-7.6 3.5q-2.9.7-6.3.8a39.5 39.5 0 01-1.6 0 30.8 30.8 0 01-6.3-.5 24.5 24.5 0 01-5.3-1.8 21 21 0 01-4.7-3 17.6 17.6 0 01-3.2-3.4 15.7 15.7 0 01-2.5-5.9 15 15 0 01-.3-3h11.5a10.2 10.2 0 00.6 3 7.8 7.8 0 002.6 3.5 10.3 10.3 0 003.7 1.8q1.5.4 3.2.5a19.6 19.6 0 00.8 0 19.8 19.8 0 002.7-.2l2.4-.5a8 8 0 002-1 6.3 6.3 0 001.6-1.7 5.4 5.4 0 001-3 6 6 0 00-.5-2.3q-.5-1.4-2-2.4a7 7 0 00-.2-.2q-2.2-1.4-6.7-2.5a61 61 0 00-2-.4q-4.7-1-8.2-2.4a30.4 30.4 0 01-1.9-.8 20.4 20.4 0 01-4.3-2.8 12.2 12.2 0 01-4.6-9.7q0-6.8 5.8-11.4 5.8-4.6 14.6-4.6a31.2 31.2 0 016.6.6q4.3 1 7.5 3.2a18.9 18.9 0 011.3.9 15.6 15.6 0 014.2 5.2q1.6 3 1.6 6.8a19 19 0 010 .1zM56.4 4v9.9H34.2V75H22V13.9H0v-10h56.4zm61.7 46v-1.5a35.1 35.1 0 01.8-8 28.8 28.8 0 012.2-6.1 24 24 0 015.2-7.2 22.5 22.5 0 013.4-2.5 22.7 22.7 0 0112.3-3.5 27.1 27.1 0 016.8.8 18.8 18.8 0 019.9 6q5 5.9 5.7 15.7a48.4 48.4 0 01.2 3.9v4.7H130a20 20 0 001 4.7 14.2 14.2 0 003.4 5.7 13 13 0 008.9 3.8 17.1 17.1 0 00.7 0 15.9 15.9 0 0012.1-5.2 20.3 20.3 0 001.2-1.4l6.4 6.1q-3.2 4.8-8.5 7.4Q150 76 143.4 76a29.1 29.1 0 01-8.5-1.2 23 23 0 01-9.8-6 23.8 23.8 0 01-6.5-12.7 34.1 34.1 0 01-.5-6.1zm140.6 0v-1.5a35.1 35.1 0 01.9-8 28.8 28.8 0 012.2-6.1 24 24 0 015.2-7.2 22.5 22.5 0 013.4-2.5 22.7 22.7 0 0112.3-3.5 27.1 27.1 0 016.8.8 18.8 18.8 0 019.8 6q5 5.9 5.8 15.7a48.4 48.4 0 01.1 3.9v4.7h-34.5a20 20 0 00.9 4.7 14.2 14.2 0 003.5 5.7 13 13 0 008.9 3.8 17.1 17.1 0 00.7 0 15.9 15.9 0 0012.1-5.2A20.3 20.3 0 00298 60l6.4 6.1q-3.2 4.8-8.5 7.4Q290.6 76 284 76a29.1 29.1 0 01-8.4-1.2 23 23 0 01-9.9-6 23.8 23.8 0 01-6.4-12.7 34.1 34.1 0 01-.6-6.1zm307.7 0v-1.5a35.1 35.1 0 01.9-8 28.8 28.8 0 012.2-6.1 24 24 0 015.2-7.2 22.5 22.5 0 013.3-2.5 22.7 22.7 0 0112.3-3.5 27.1 27.1 0 016.9.8 18.8 18.8 0 019.8 6q5 5.9 5.7 15.7a48.4 48.4 0 01.2 3.9v4.7h-34.5a20 20 0 00.9 4.7 14.2 14.2 0 003.4 5.7 13 13 0 009 3.8 17.1 17.1 0 00.7 0 15.9 15.9 0 0012-5.2 20.3 20.3 0 001.3-1.4L612 66q-3.2 4.8-8.5 7.4-5.3 2.6-11.9 2.6a29.1 29.1 0 01-8.5-1.2 23 23 0 01-9.8-6 23.8 23.8 0 01-6.5-12.7 34.1 34.1 0 01-.5-6.1zm-224-40.7h11.8v12.9h9.3V31h-9.3v29.4q0 3 1.2 4.4a3.4 3.4 0 001.2.9q1.2.5 3 .5a18.3 18.3 0 004.2-.5v9.2a31 31 0 01-5.1 1 26.3 26.3 0 01-2.7 0q-13.7 0-13.7-15v-30h-8.7v-8.7h8.7V9.3zM555.4 0v75h-11.8V0h11.8zM370.4 48.7V48a33.8 33.8 0 011-8.3 28.7 28.7 0 012-5.7 23.5 23.5 0 015-6.7 21.7 21.7 0 013.7-2.9 23.5 23.5 0 0110-3.2 29.2 29.2 0 012.8-.1 27 27 0 018 1.1 21.7 21.7 0 019.3 5.8 25 25 0 016.4 11.9 35 35 0 01.8 6.3v2.8a34.8 34.8 0 01-.8 7.9 28.5 28.5 0 01-2.1 6q-3 6.2-8.6 9.6a23.5 23.5 0 01-9.8 3.2 29.5 29.5 0 01-3.1.2 27.1 27.1 0 01-8.2-1.2 21.6 21.6 0 01-9.7-6.3 25.3 25.3 0 01-5.9-11.5 37.3 37.3 0 01-.8-8.3zm11.8.4a31.9 31.9 0 00.4 5q.4 2.6 1.3 4.8a14.9 14.9 0 001.7 3 10.7 10.7 0 007.7 4.5 14.3 14.3 0 001.7.1 12.3 12.3 0 004.3-.7q3-1.1 5-4a15.5 15.5 0 002.1-4.3q.7-2 1-4.6a39.6 39.6 0 00.3-4.8 30.2 30.2 0 00-.4-5q-.5-2.8-1.5-5a15.2 15.2 0 00-1.6-2.7 11.4 11.4 0 00-3.9-3.4q-2.2-1.2-5-1.3a14.5 14.5 0 00-.4 0q-5.8 0-9.3 4.6a14.9 14.9 0 00-2 4.3q-1.4 3.9-1.4 9.5zm80 11V37a11.9 11.9 0 00-3.4-3.9q-2.3-1.7-5.5-2a15.6 15.6 0 00-1.7 0 11.8 11.8 0 00-4.2.6q-2.9 1.1-4.8 3.8a13.2 13.2 0 00-.1.1 15.4 15.4 0 00-2 4.2q-1.2 4-1.2 9.5 0 5.6 1.6 9.6a15 15 0 001.6 3 10.7 10.7 0 003.8 3.3q2.3 1.2 5.2 1.2a13.1 13.1 0 004.7-.8q3.8-1.4 6-5.3zm56.6 0V37a11.9 11.9 0 00-3.3-3.9q-2.3-1.7-5.5-2a15.6 15.6 0 00-1.7 0 11.8 11.8 0 00-4.3.6q-2.8 1.1-4.7 3.8a13.2 13.2 0 00-.1.1 15.4 15.4 0 00-2 4.2q-1.3 4-1.3 9.5 0 5.6 1.7 9.6a15 15 0 001.6 3A10.7 10.7 0 00503 65q2.3 1.2 5.2 1.2a13.1 13.1 0 004.7-.8q3.7-1.4 6-5.3zM130.2 43.8h22.6v-1q-.2-4-1.6-6.7a10 10 0 00-1.5-2.2 9.1 9.1 0 00-5.2-2.9 13.4 13.4 0 00-2.6-.2 11.3 11.3 0 00-3.7.6 9.7 9.7 0 00-4.1 2.8q-3 3.4-3.9 9.6zm140.7 0h22.6v-1q-.3-4-1.6-6.7a10 10 0 00-1.6-2.2 9.1 9.1 0 00-5.1-2.9 13.4 13.4 0 00-2.6-.2 11.3 11.3 0 00-3.8.6 9.7 9.7 0 00-4 2.8q-3 3.4-3.9 9.6zm307.7 0h22.6v-1q-.3-4-1.7-6.7a10 10 0 00-1.5-2.2 9.1 9.1 0 00-5.2-2.9 13.4 13.4 0 00-2.5-.2 11.3 11.3 0 00-3.8.6 9.7 9.7 0 00-4.1 2.8q-3 3.4-3.8 9.6z" vector-effect="non-scaling-stroke" fill-rule="evenodd" fill="#2563eb"/></svg>