<?xml version="1.0" encoding="utf-8"?>
<!-- Generator: Adobe Illustrator 25.2.3, SVG Export Plug-In . SVG Version: 6.00 Build 0)  -->
<svg version="1.1" id="Layer_1" xmlns="http://www.w3.org/2000/svg" xmlns:xlink="http://www.w3.org/1999/xlink" x="0px" y="0px"
	 viewBox="0 0 32 32" style="enable-background:new 0 0 32 32;" xml:space="preserve">
<path d="M25.6,19.5L23.2,16l2.4-3.4c0.2-0.3,0-0.8-0.4-0.9l-4.1-0.7l-0.7-4.1c-0.1-0.4-0.6-0.6-0.9-0.4L16,8.8l-3.5-2.4
	c-0.3-0.2-0.8,0-0.9,0.4l-0.7,4.1l-4.1,0.7c-0.4,0.1-0.6,0.6-0.4,0.9L8.8,16l-2.4,3.4c-0.2,0.3,0,0.8,0.4,0.9l4.1,0.7l0.7,4.1
	c0.1,0.4,0.6,0.6,0.9,0.4l3.4-2.4l3.4,2.4c0.3,0.2,0.8,0,0.9-0.4l0.7-4.1l4.1-0.7C25.6,20.3,25.8,19.8,25.6,19.5z M16,21.9
	c-3.3,0-5.9-2.7-5.9-5.9c0-3.3,2.7-5.9,5.9-5.9s5.9,2.7,5.9,5.9C21.9,19.3,19.3,21.9,16,21.9z"/>
<path d="M16,3.6C9.1,3.6,3.7,9.1,3.7,15.9S9,28.4,16,28.4s12.3-5.6,12.3-12.3S22.9,3.6,16,3.6z M16,25.2c-5.1,0-9.1-4.3-9.1-9.3
	s4-9.1,9.1-9.1c5.1,0,9.1,4.3,9.1,9.3S21.1,25.2,16,25.2z"/>
<path d="M19,5.2c-4.3,0-7.7,3.5-7.7,7.7s3.3,7.9,7.7,7.9s7.7-3.5,7.7-7.7S23.3,5.2,19,5.2z"/>
</svg>
